<svg width="975" height="942" viewBox="0 0 975 942" fill="none" xmlns="http://www.w3.org/2000/svg">
<g opacity="0.29">
<path d="M487.5 675.57C604.584 675.57 699.5 583.908 699.5 470.838C699.5 357.768 604.584 266.106 487.5 266.106C370.416 266.106 275.5 357.768 275.5 470.838C275.5 583.908 370.416 675.57 487.5 675.57Z" stroke="#7C3AED" stroke-width="3"/>
</g>
<g opacity="0.17">
<path d="M487.5 755.724C658.156 755.724 796.5 622.339 796.5 457.801C796.5 293.262 658.156 159.877 487.5 159.877C316.844 159.877 178.5 293.262 178.5 457.801C178.5 622.339 316.844 755.724 487.5 755.724Z" stroke="#7C3AED" stroke-width="3"/>
</g>
<g opacity="0.13">
<path d="M488 834.913C703.667 834.913 878.5 666.29 878.5 458.284C878.5 250.277 703.667 81.6544 488 81.6544C272.333 81.6544 97.5 250.277 97.5 458.284C97.5 666.29 272.333 834.913 488 834.913Z" stroke="#7C3AED" stroke-width="3"/>
</g>
<g opacity="0.11">
<path d="M487.5 940.176C755.91 940.176 973.5 730.046 973.5 470.838C973.5 211.63 755.91 1.5 487.5 1.5C219.09 1.5 1.5 211.63 1.5 470.838C1.5 730.046 219.09 940.176 487.5 940.176Z" stroke="#7C3AED" stroke-width="3"/>
</g>
</svg>
