<svg width="119" height="115" viewBox="0 0 119 115" fill="none" xmlns="http://www.w3.org/2000/svg">
<path d="M105.039 0.122559H13C5.8203 0.122559 0 5.74331 0 12.6769V101.56C0 108.494 5.8203 114.115 13 114.115H105.039C112.219 114.115 118.039 108.494 118.039 101.56V12.6769C118.039 5.74331 112.219 0.122559 105.039 0.122559Z" fill="#7C3AED" fill-opacity="0.23"/>
<path d="M11.957 0.676001C10.4786 0.675621 9.01461 0.956549 7.64867 1.50274C6.28273 2.04892 5.04161 2.84967 3.99622 3.85921C2.95083 4.86876 2.12166 6.06733 1.55609 7.38644C0.990508 8.70555 0.699606 10.1194 0.7 11.5471V102.567C0.7 105.449 1.88569 108.214 3.99622 110.252C6.10675 112.29 8.96925 113.435 11.954 113.435H106.205C109.19 113.435 112.052 112.29 114.163 110.252C116.273 108.214 117.459 105.449 117.459 102.567V11.5471C117.46 8.66482 116.275 5.9003 114.165 3.8616C112.055 1.82291 109.194 0.677026 106.209 0.676001H11.957ZM11.957 0H106.208C109.379 0 112.42 1.21656 114.663 3.38206C116.905 5.54755 118.165 8.48459 118.165 11.5471V102.567C118.165 105.629 116.905 108.566 114.663 110.732C112.42 112.897 109.379 114.114 106.208 114.114H11.957C8.78598 114.114 5.74482 112.897 3.50248 110.732C1.26013 108.567 0.000265202 105.63 0 102.568L0 11.5471C0 8.48459 1.25975 5.54755 3.50212 3.38206C5.7445 1.21656 8.78581 0 11.957 0Z" fill="url(#paint0_linear_76_106)"/>
<path d="M48.4389 47.4348L44.6849 47.7149C44.1729 47.7512 43.6764 47.9008 43.2337 48.152C42.791 48.4031 42.4141 48.7492 42.1319 49.1634L37.8019 55.4879C37.5875 55.8014 37.4581 56.1619 37.4256 56.5362C37.3931 56.9106 37.4586 57.2869 37.616 57.6304C37.7734 57.974 38.0177 58.2738 38.3265 58.5024C38.6352 58.7309 38.9985 58.8809 39.3829 58.9384L42.8209 59.4522C43.7385 55.0908 45.6584 50.984 48.4389 47.4348Z" fill="#7C3AED"/>
<path d="M56.6011 72.7638L57.1331 76.0839C57.1922 76.4554 57.3472 76.8066 57.5837 77.1051C57.8203 77.4035 58.1309 77.6397 58.4868 77.7918C58.8427 77.9439 59.2326 78.007 59.6204 77.9753C60.0083 77.9437 60.3816 77.8183 60.7061 77.6107L67.2551 73.4291C67.684 73.1567 68.0424 72.7926 68.3024 72.3651C68.5625 71.9376 68.7174 71.4582 68.7551 70.9637L69.0451 67.3384C65.3699 70.0237 61.1173 71.8777 56.6011 72.7638Z" fill="#7C3AED"/>
<path d="M55.309 70.4624C55.4293 70.4623 55.5494 70.4526 55.668 70.4334C57.434 70.1434 59.1624 69.6701 60.823 69.0216L46.699 55.3779C46.0275 56.9817 45.5373 58.6508 45.237 60.3562C45.1802 60.6921 45.2071 61.0363 45.3156 61.3601C45.4242 61.6839 45.6111 61.9781 45.861 62.2181L53.744 69.8308C54.1588 70.2328 54.7214 70.4599 55.309 70.4624Z" fill="#7C3AED"/>
<path d="M77.295 54.6872C79.8785 49.5699 81.0496 43.895 80.6949 38.2121C80.665 37.6837 80.4341 37.1845 80.0466 36.8103C79.6591 36.436 79.1422 36.2131 78.5949 36.1841C78.0559 36.1561 77.4159 36.1349 76.6949 36.1349C71.4404 36.0848 66.2472 37.2277 61.534 39.4714C55.7002 42.6073 50.9344 47.3111 47.8149 53.0117C47.8563 53.0416 47.8957 53.0738 47.9329 53.1083L63.1679 67.821C63.2036 67.857 63.237 67.895 63.2679 67.9349C69.1731 64.9236 74.046 60.3214 77.295 54.6872ZM62.6119 44.9799C63.6504 43.9769 65.0167 43.3527 66.4783 43.2136C67.9399 43.0745 69.4062 43.4291 70.6273 44.217C71.8485 45.0048 72.749 46.1773 73.1755 47.5344C73.6019 48.8916 73.5278 50.3496 72.9659 51.66C72.404 52.9703 71.389 54.052 70.0938 54.7207C68.7987 55.3894 67.3035 55.6037 65.863 55.3271C64.4226 55.0505 63.126 54.3002 62.1942 53.2039C61.2624 52.1076 60.7531 50.7333 60.7529 49.315C60.7536 47.6892 61.4221 46.1301 62.6119 44.9799Z" fill="#7C3AED"/>
<path d="M64.408 51.9158C65.0312 52.5175 65.8512 52.8919 66.7282 52.9752C67.6052 53.0584 68.485 52.8455 69.2177 52.3726C69.9503 51.8997 70.4905 51.1961 70.7462 50.3816C71.0018 49.5672 70.9572 48.6924 70.6198 47.9062C70.2824 47.12 69.6732 46.4711 68.896 46.07C68.1187 45.669 67.2215 45.5406 66.3572 45.7068C65.493 45.873 64.7151 46.3234 64.1562 46.9814C63.5972 47.6393 63.2918 48.4641 63.292 49.3151C63.2926 50.2905 63.694 51.2259 64.408 51.9158Z" fill="#7C3AED"/>
<path d="M38.7108 70.6216C38.878 70.6221 39.0436 70.5906 39.1981 70.5289C39.3526 70.4673 39.4928 70.3767 39.6108 70.2623L43.7558 66.2594C43.9945 66.0289 44.1286 65.7163 44.1286 65.3903C44.1286 65.0643 43.9945 64.7517 43.7558 64.5212C43.6377 64.407 43.4973 64.3165 43.3429 64.2547C43.1885 64.1929 43.023 64.1611 42.8558 64.1611C42.5183 64.1611 42.1945 64.2906 41.9558 64.5212L37.8128 68.5279C37.6355 68.6996 37.5148 68.9182 37.466 69.1561C37.4173 69.3941 37.4427 69.6406 37.539 69.8646C37.6354 70.0885 37.7983 70.2799 38.0072 70.4145C38.2161 70.5491 38.4617 70.6208 38.7128 70.6206L38.7108 70.6216Z" fill="#7C3AED"/>
<path d="M47.5519 68.1929C47.4339 68.0783 47.2937 67.9873 47.1392 67.9253C46.9848 67.8632 46.8191 67.8313 46.6519 67.8313C46.4846 67.8313 46.3189 67.8632 46.1645 67.9253C46.01 67.9873 45.8698 68.0783 45.7519 68.1929L37.7869 75.8886C37.5482 76.1191 37.4141 76.4318 37.4141 76.7578C37.4141 77.0838 37.5482 77.3964 37.7869 77.6269C38.0255 77.8574 38.3493 77.9869 38.6869 77.9869C39.0244 77.9869 39.3482 77.8574 39.5869 77.6269L47.5559 69.9311C47.6742 69.817 47.7681 69.6814 47.832 69.5321C47.8959 69.3828 47.9286 69.2227 47.9282 69.0612C47.9279 68.8996 47.8944 68.7397 47.8298 68.5907C47.7652 68.4417 47.6708 68.3065 47.5519 68.1929Z" fill="#7C3AED"/>
<path d="M49.5549 71.8637L45.4099 75.8666C45.2917 75.9807 45.198 76.1162 45.134 76.2653C45.07 76.4145 45.0371 76.5743 45.0371 76.7357C45.0371 76.8971 45.07 77.057 45.134 77.2061C45.198 77.3552 45.2917 77.4907 45.4099 77.6049C45.5281 77.719 45.6684 77.8095 45.8228 77.8713C45.9772 77.9331 46.1428 77.9649 46.3099 77.9649C46.477 77.9649 46.6426 77.9331 46.797 77.8713C46.9514 77.8095 47.0917 77.719 47.2099 77.6049L51.3549 73.602C51.5936 73.3714 51.7277 73.0588 51.7277 72.7328C51.7277 72.4068 51.5936 72.0942 51.3549 71.8637C51.1162 71.6332 50.7925 71.5037 50.4549 71.5037C50.1173 71.5037 49.7936 71.6332 49.5549 71.8637Z" fill="#7C3AED"/>
<defs>
<linearGradient id="paint0_linear_76_106" x1="0" y1="0" x2="100.988" y2="106.226" gradientUnits="userSpaceOnUse">
<stop stop-color="#7C3AED"/>
<stop offset="1" stop-color="#ECC9FF" stop-opacity="0.231"/>
</linearGradient>
</defs>
</svg>
