<svg width="119" height="115" viewBox="0 0 119 115" fill="none" xmlns="http://www.w3.org/2000/svg">
<path d="M105.039 0.122559H13C5.8203 0.122559 0 5.74331 0 12.6769V101.56C0 108.494 5.8203 114.115 13 114.115H105.039C112.219 114.115 118.039 108.494 118.039 101.56V12.6769C118.039 5.74331 112.219 0.122559 105.039 0.122559Z" fill="#7C3AED" fill-opacity="0.23"/>
<path d="M11.957 0.676001C10.4786 0.675621 9.01461 0.956549 7.64867 1.50274C6.28273 2.04892 5.04161 2.84967 3.99622 3.85921C2.95083 4.86876 2.12166 6.06733 1.55609 7.38644C0.990508 8.70555 0.699606 10.1194 0.7 11.5471V102.567C0.7 105.449 1.88569 108.214 3.99622 110.252C6.10675 112.29 8.96925 113.435 11.954 113.435H106.205C109.19 113.435 112.052 112.29 114.163 110.252C116.273 108.214 117.459 105.449 117.459 102.567V11.5471C117.46 8.66482 116.275 5.9003 114.165 3.8616C112.055 1.82291 109.194 0.677026 106.209 0.676001H11.957ZM11.957 0H106.208C109.379 0 112.42 1.21656 114.663 3.38206C116.905 5.54755 118.165 8.48459 118.165 11.5471V102.567C118.165 105.629 116.905 108.566 114.663 110.732C112.42 112.897 109.379 114.114 106.208 114.114H11.957C8.78598 114.114 5.74482 112.897 3.50248 110.732C1.26013 108.567 0.000265202 105.63 0 102.568L0 11.5471C0 8.48459 1.25975 5.54755 3.50212 3.38206C5.7445 1.21656 8.78581 0 11.957 0Z" fill="url(#paint0_linear_76_107)"/>
<path fill-rule="evenodd" clip-rule="evenodd" d="M50.3999 69.5336C50.2831 69.2016 50.0958 68.9129 49.8568 68.6966L49.8386 68.6801C48.056 67.0134 46.6142 64.8742 45.6247 62.4276C44.6351 59.981 44.1242 57.2924 44.1314 54.5693C44.131 51.5118 44.7732 48.5042 45.998 45.8285C47.2227 43.1528 48.9898 40.8965 51.1336 39.2712C53.2774 37.646 55.7277 36.7049 58.2548 36.5362C60.782 36.3675 63.3032 36.9767 65.5822 38.3067C67.8612 39.6368 69.8233 41.6441 71.2846 44.1405C72.7459 46.637 73.6586 49.5407 73.9371 52.5797C74.2155 55.6187 73.8507 58.6933 72.8768 61.5154C71.9028 64.3375 70.3516 66.8146 68.3686 68.7146L68.3309 68.7463C68.1064 68.9513 67.9286 69.2217 67.8141 69.5322L50.3999 69.5336ZM52.7482 57.5774L56.1642 61.7041C56.334 61.9096 56.5378 62.0695 56.7623 62.1734C56.9867 62.2772 57.2268 62.3227 57.4667 62.3068C57.7067 62.2909 57.9413 62.214 58.1549 62.0811C58.3686 61.9482 58.5567 61.7623 58.7069 61.5356L65.5413 51.216C65.8145 50.7875 65.9376 50.2465 65.8841 49.7095C65.8306 49.1724 65.6048 48.6822 65.2552 48.3442C64.9056 48.0062 64.4602 47.8474 64.0147 47.902C63.5692 47.9566 63.1592 48.2202 62.873 48.6361L57.2321 57.1561L55.1639 54.6577C54.8434 54.2707 54.4088 54.0534 53.9556 54.0535C53.5025 54.0537 53.0679 54.2713 52.7476 54.6584C52.4273 55.0456 52.2473 55.5706 52.2475 56.118C52.2476 56.6655 52.4277 57.1904 52.7482 57.5774ZM67.6324 73.6603C67.6232 75.0331 67.6232 76.4888 67.6232 77.7898C67.6234 78.603 67.4909 79.4082 67.2333 80.1595C66.9757 80.9108 66.598 81.5934 66.1219 82.1682C65.6458 82.7431 65.0806 83.199 64.4586 83.5099C63.8366 83.8207 63.17 83.9804 62.4968 83.9799H55.6647C54.3062 83.9806 53.003 83.3295 52.0419 82.1697C51.0807 81.0099 50.5403 79.4364 50.5394 77.7953V73.6658L67.6324 73.6603ZM57.3727 26.1932C57.3727 25.646 57.5527 25.1212 57.873 24.7342C58.1933 24.3473 58.6277 24.1299 59.0807 24.1299C59.5337 24.1299 59.9682 24.3473 60.2885 24.7342C60.6088 25.1212 60.7888 25.646 60.7888 26.1932V30.32C60.7888 30.8672 60.6088 31.392 60.2885 31.779C59.9682 32.166 59.5337 32.3833 59.0807 32.3833C58.6277 32.3833 58.1933 32.166 57.873 31.779C57.5527 31.392 57.3727 30.8672 57.3727 30.32V26.1932ZM77.8726 57.1506C77.4193 57.1506 76.9846 56.9331 76.664 56.5459C76.3435 56.1587 76.1634 55.6335 76.1634 55.0859C76.1634 54.5383 76.3435 54.0131 76.664 53.6259C76.9846 53.2387 77.4193 53.0211 77.8726 53.0211H81.291C81.7443 53.0211 82.179 53.2387 82.4996 53.6259C82.8201 54.0131 83.0002 54.5383 83.0002 55.0859C83.0002 55.6335 82.8201 56.1587 82.4996 56.5459C82.179 56.9331 81.7443 57.1506 81.291 57.1506H77.8726ZM36.8693 57.1506C36.416 57.1506 35.9813 56.9331 35.6608 56.5459C35.3402 56.1587 35.1602 55.6335 35.1602 55.0859C35.1602 54.5383 35.3402 54.0131 35.6608 53.6259C35.9813 53.2387 36.416 53.0211 36.8693 53.0211H40.2877C40.741 53.0211 41.1757 53.2387 41.4963 53.6259C41.8168 54.0131 41.9969 54.5383 41.9969 55.0859C41.9969 55.6335 41.8168 56.1587 41.4963 56.5459C41.1757 56.9331 40.741 57.1506 40.2877 57.1506H36.8693ZM76.1657 31.5284C76.3235 31.3319 76.5121 31.1752 76.7205 31.0675C76.9289 30.9598 77.1529 30.9033 77.3796 30.9012C77.6062 30.8991 77.831 30.9514 78.0407 31.0552C78.2505 31.1591 78.441 31.3122 78.6013 31.5058C78.7616 31.6995 78.8884 31.9297 78.9743 32.183C79.0602 32.4364 79.1036 32.7079 79.1019 32.9817C79.1001 33.2555 79.0533 33.5262 78.9641 33.7779C78.875 34.0297 78.7453 34.2575 78.5826 34.4481L76.1657 37.365C75.8455 37.7521 75.4111 37.9698 74.9581 37.9701C74.5051 37.9703 74.0705 37.7532 73.75 37.3664C73.4295 36.9795 73.2493 36.4548 73.2491 35.9075C73.2489 35.3602 73.4287 34.8353 73.7489 34.4481L76.1657 31.5284ZM39.5811 34.4481C39.2746 34.0577 39.1063 33.5382 39.1122 33.0001C39.118 32.4621 39.2974 31.948 39.6123 31.5675C39.9272 31.1869 40.3526 30.9699 40.798 30.9626C41.2434 30.9553 41.6736 31.1583 41.9969 31.5284L44.4138 34.4481C44.5723 34.6398 44.698 34.8673 44.7838 35.1178C44.8695 35.3682 44.9136 35.6365 44.9135 35.9075C44.9134 36.1785 44.8691 36.4468 44.7831 36.6971C44.6972 36.9474 44.5713 37.1748 44.4126 37.3664C44.2539 37.5579 44.0655 37.7098 43.8582 37.8134C43.651 37.9169 43.4288 37.9702 43.2045 37.9701C42.9802 37.9699 42.7581 37.9164 42.5509 37.8126C42.3437 37.7088 42.1554 37.5567 41.9969 37.365L39.5811 34.4481Z" fill="#7C3AED"/>
<defs>
<linearGradient id="paint0_linear_76_107" x1="0" y1="0" x2="100.988" y2="106.226" gradientUnits="userSpaceOnUse">
<stop stop-color="#7C3AED"/>
<stop offset="1" stop-color="#ECC9FF" stop-opacity="0.231"/>
</linearGradient>
</defs>
</svg>
