<svg width="119" height="115" viewBox="0 0 119 115" fill="none" xmlns="http://www.w3.org/2000/svg">
<path d="M105.039 0.122559H13C5.8203 0.122559 0 5.74331 0 12.6769V101.56C0 108.494 5.8203 114.115 13 114.115H105.039C112.219 114.115 118.039 108.494 118.039 101.56V12.6769C118.039 5.74331 112.219 0.122559 105.039 0.122559Z" fill="#7C3AED" fill-opacity="0.23"/>
<path d="M11.957 0.676001C10.4786 0.675621 9.01461 0.956549 7.64867 1.50274C6.28273 2.04892 5.04161 2.84967 3.99622 3.85921C2.95083 4.86876 2.12166 6.06733 1.55609 7.38644C0.990508 8.70555 0.699606 10.1194 0.7 11.5471V102.567C0.7 105.449 1.88569 108.214 3.99622 110.252C6.10675 112.29 8.96925 113.435 11.954 113.435H106.205C109.19 113.435 112.052 112.29 114.163 110.252C116.273 108.214 117.459 105.449 117.459 102.567V11.5471C117.46 8.66482 116.275 5.9003 114.165 3.8616C112.055 1.82291 109.194 0.677026 106.209 0.676001H11.957ZM11.957 0H106.208C109.379 0 112.42 1.21656 114.663 3.38206C116.905 5.54755 118.165 8.48459 118.165 11.5471V102.567C118.165 105.629 116.905 108.566 114.663 110.732C112.42 112.897 109.379 114.114 106.208 114.114H11.957C8.78598 114.114 5.74482 112.897 3.50248 110.732C1.26013 108.567 0.000265202 105.63 0 102.568L0 11.5471C0 8.48459 1.25975 5.54755 3.50212 3.38206C5.7445 1.21656 8.78581 0 11.957 0Z" fill="url(#paint0_linear_76_105)"/>
<path d="M80.5793 75.9208L65.9463 50.2328C65.6917 49.7904 65.3174 49.4231 64.8633 49.1705V45.8977H73.5303C73.9133 45.8977 74.2805 45.7507 74.5513 45.4892C74.8222 45.2277 74.9743 44.873 74.9743 44.5032V37.5278C74.9743 37.3447 74.9369 37.1633 74.8644 36.9941C74.7918 36.825 74.6854 36.6712 74.5513 36.5417C74.4173 36.4122 74.2581 36.3095 74.0829 36.2395C73.9077 36.1694 73.7199 36.1333 73.5303 36.1333H63.4183C63.0353 36.1333 62.668 36.2802 62.3972 36.5417C62.1264 36.8033 61.9743 37.158 61.9743 37.5278V49.1763C61.5202 49.4289 61.1458 49.7961 60.8913 50.2385L56.1963 58.452L65.7293 74.508C66.0335 75.0333 66.2169 75.6158 66.2667 76.2158C66.3166 76.8158 66.2319 77.4191 66.0183 77.9845H79.3073C79.5579 77.9843 79.8042 77.9212 80.022 77.8014C80.2399 77.6817 80.4218 77.5094 80.55 77.3014C80.6782 77.0934 80.7483 76.8568 80.7534 76.6148C80.7586 76.3728 80.6986 76.1337 80.5793 75.9208Z" fill="#7C3AED"/>
<path d="M52.9312 58.4526C52.6792 58.0232 52.3138 57.666 51.8722 57.4175C51.4307 57.169 50.9287 57.0381 50.4177 57.0381C49.9066 57.0381 49.4047 57.169 48.9631 57.4175C48.5215 57.666 48.1561 58.0232 47.9042 58.4526L37.6062 75.8886C37.4789 76.101 37.412 76.3422 37.4121 76.5876C37.4123 76.8331 37.4795 77.0742 37.607 77.2865C37.7346 77.4988 37.9179 77.6749 38.1384 77.7969C38.359 77.9189 38.609 77.9825 38.8632 77.9813H61.9742C62.2283 77.9825 62.4783 77.9189 62.6989 77.7969C62.9194 77.6749 63.1027 77.4988 63.2303 77.2865C63.3578 77.0742 63.425 76.8331 63.4252 76.5876C63.4254 76.3422 63.3584 76.101 63.2312 75.8886L52.9312 58.4526Z" fill="#7C3AED"/>
<defs>
<linearGradient id="paint0_linear_76_105" x1="0" y1="0" x2="100.988" y2="106.226" gradientUnits="userSpaceOnUse">
<stop stop-color="#7C3AED"/>
<stop offset="1" stop-color="#ECC9FF" stop-opacity="0.231"/>
</linearGradient>
</defs>
</svg>
