<svg width="119" height="115" viewBox="0 0 119 115" fill="none" xmlns="http://www.w3.org/2000/svg">
<path d="M105.039 0.122559H13C5.8203 0.122559 0 5.74331 0 12.6769V101.56C0 108.494 5.8203 114.115 13 114.115H105.039C112.219 114.115 118.039 108.494 118.039 101.56V12.6769C118.039 5.74331 112.219 0.122559 105.039 0.122559Z" fill="#7C3AED" fill-opacity="0.23"/>
<path d="M11.957 0.676001C10.4786 0.675621 9.01461 0.956549 7.64867 1.50274C6.28273 2.04892 5.04161 2.84967 3.99622 3.85921C2.95083 4.86876 2.12166 6.06733 1.55609 7.38644C0.990508 8.70555 0.699606 10.1194 0.7 11.5471V102.567C0.7 105.449 1.88569 108.214 3.99622 110.252C6.10675 112.29 8.96925 113.435 11.954 113.435H106.205C109.19 113.435 112.052 112.29 114.163 110.252C116.273 108.214 117.459 105.449 117.459 102.567V11.5471C117.46 8.66482 116.275 5.9003 114.165 3.8616C112.055 1.82291 109.194 0.677026 106.209 0.676001H11.957ZM11.957 0H106.208C109.379 0 112.42 1.21656 114.663 3.38206C116.905 5.54755 118.165 8.48459 118.165 11.5471V102.567C118.165 105.629 116.905 108.566 114.663 110.732C112.42 112.897 109.379 114.114 106.208 114.114H11.957C8.78598 114.114 5.74482 112.897 3.50248 110.732C1.26013 108.567 0.000265202 105.63 0 102.568L0 11.5471C0 8.48459 1.25975 5.54755 3.50212 3.38206C5.7445 1.21656 8.78581 0 11.957 0Z" fill="url(#paint0_linear_76_103)"/>
<path d="M63.632 35.2483H61.148C60.7767 33.9923 59.9918 32.8872 58.9121 32.1005C57.8323 31.3138 56.5165 30.8882 55.164 30.8882C53.8114 30.8882 52.4956 31.3138 51.4159 32.1005C50.3361 32.8872 49.5512 33.9923 49.18 35.2483H46.696C46.2476 35.2514 45.8186 35.4247 45.5016 35.7308C45.1846 36.037 45.0051 36.4513 45.002 36.8843V40.158C45.0069 41.1687 45.4249 42.1367 46.165 42.8514C46.9051 43.5661 47.9074 43.9697 48.954 43.9745H61.374C62.4205 43.9697 63.4229 43.5661 64.1629 42.8514C64.903 42.1367 65.321 41.1687 65.326 40.158V36.8843C65.3228 36.4513 65.1433 36.037 64.8263 35.7308C64.5093 35.4247 64.0803 35.2514 63.632 35.2483Z" fill="#7C3AED"/>
<path d="M68.148 37.4299H67.583V40.1561C67.5835 40.9438 67.4233 41.7239 67.1114 42.4517C66.7995 43.1796 66.3421 43.8409 65.7653 44.3979C65.1885 44.9549 64.5038 45.3966 63.7501 45.6978C62.9964 45.999 62.1887 46.1538 61.373 46.1532H48.953C48.1373 46.1538 47.3296 45.999 46.5759 45.6978C45.8222 45.3966 45.1374 44.9549 44.5607 44.3979C43.9839 43.8409 43.5265 43.1796 43.2146 42.4517C42.9027 41.7239 42.7425 40.9438 42.743 40.1561V37.4299H42.179C41.3633 37.4294 40.5556 37.5842 39.8019 37.8854C39.0482 38.1866 38.3634 38.6283 37.7867 39.1853C37.2099 39.7423 36.7525 40.4036 36.4406 41.1314C36.1287 41.8593 35.9685 42.6393 35.969 43.427V70.6863C35.9685 71.474 36.1287 72.2541 36.4406 72.9819C36.7525 73.7097 37.2099 74.371 37.7867 74.928C38.3634 75.485 39.0482 75.9267 39.8019 76.2279C40.5556 76.5291 41.3633 76.6839 42.179 76.6834H58.844L59.344 74.0006C59.5663 72.7887 60.1647 71.6705 61.06 70.7945L62.867 69.0494H44.437C43.995 69.039 43.5747 68.8622 43.2658 68.5566C42.957 68.251 42.7842 67.841 42.7842 67.414C42.7842 66.987 42.957 66.5769 43.2658 66.2713C43.5747 65.9658 43.995 65.7889 44.437 65.7785H65.89C65.9973 65.7715 66.105 65.7863 66.206 65.822H66.229L74.358 57.9717V43.427C74.3585 42.6393 74.1983 41.8593 73.8864 41.1314C73.5745 40.4036 73.1171 39.7423 72.5403 39.1853C71.9635 38.6283 71.2788 38.1866 70.5251 37.8854C69.7714 37.5842 68.9637 37.4294 68.148 37.4299ZM65.89 61.9591H44.437C43.995 61.9487 43.5747 61.7719 43.2658 61.4663C42.957 61.1607 42.7842 60.7507 42.7842 60.3237C42.7842 59.8967 42.957 59.4866 43.2658 59.181C43.5747 58.8755 43.995 58.6986 44.437 58.6882H65.89C66.332 58.6986 66.7523 58.8755 67.0611 59.181C67.37 59.4866 67.5428 59.8967 67.5428 60.3237C67.5428 60.7507 67.37 61.1607 67.0611 61.4663C66.7523 61.7719 66.332 61.9487 65.89 61.9591ZM65.89 54.8717H44.437C43.995 54.8614 43.5747 54.6845 43.2658 54.3789C42.957 54.0734 42.7842 53.6633 42.7842 53.2363C42.7842 52.8093 42.957 52.3992 43.2658 52.0937C43.5747 51.7881 43.995 51.6112 44.437 51.6008H65.89C66.332 51.6112 66.7523 51.7881 67.0611 52.0937C67.37 52.3992 67.5428 52.8093 67.5428 53.2363C67.5428 53.6633 67.37 54.0734 67.0611 54.3789C66.7523 54.6845 66.332 54.8614 65.89 54.8717Z" fill="#7C3AED"/>
<path d="M64.2569 83.2252C64.0093 83.2255 63.7647 83.1733 63.5402 83.0724C63.3157 82.9715 63.1169 82.8243 62.9577 82.6412C62.7985 82.4581 62.6828 82.2435 62.6187 82.0125C62.5547 81.7816 62.5438 81.5398 62.5869 81.3044L63.7869 74.751C63.8482 74.4219 64.0122 74.1186 64.2569 73.8819L81.0239 57.6888C83.0829 55.6955 85.1069 56.2344 86.2129 57.3025L89.0059 59.9997C89.7466 60.7157 90.1626 61.6864 90.1626 62.6984C90.1626 63.7105 89.7466 64.6811 89.0059 65.3971L72.2399 81.5902C71.996 81.8281 71.6814 81.9868 71.3399 82.0441L64.5539 83.203C64.457 83.2203 64.3585 83.2291 64.2599 83.2291L64.2569 83.2252Z" fill="#7C3AED"/>
<defs>
<linearGradient id="paint0_linear_76_103" x1="0" y1="0" x2="100.988" y2="106.226" gradientUnits="userSpaceOnUse">
<stop stop-color="#7C3AED"/>
<stop offset="1" stop-color="#ECC9FF" stop-opacity="0.231"/>
</linearGradient>
</defs>
</svg>
