<svg width="119" height="115" viewBox="0 0 119 115" fill="none" xmlns="http://www.w3.org/2000/svg">
<path d="M105.039 0.122559H13C5.8203 0.122559 0 5.74331 0 12.6769V101.56C0 108.494 5.8203 114.115 13 114.115H105.039C112.219 114.115 118.039 108.494 118.039 101.56V12.6769C118.039 5.74331 112.219 0.122559 105.039 0.122559Z" fill="#7C3AED" fill-opacity="0.23"/>
<path d="M11.957 0.676001C10.4786 0.675621 9.01461 0.956549 7.64867 1.50274C6.28273 2.04892 5.04161 2.84967 3.99622 3.85921C2.95083 4.86876 2.12166 6.06733 1.55609 7.38644C0.990508 8.70555 0.699606 10.1194 0.7 11.5471V102.567C0.7 105.449 1.88569 108.214 3.99622 110.252C6.10675 112.29 8.96925 113.435 11.954 113.435H106.205C109.19 113.435 112.052 112.29 114.163 110.252C116.273 108.214 117.459 105.449 117.459 102.567V11.5471C117.46 8.66482 116.275 5.9003 114.165 3.8616C112.055 1.82291 109.194 0.677026 106.209 0.676001H11.957ZM11.957 0H106.208C109.379 0 112.42 1.21656 114.663 3.38206C116.905 5.54755 118.165 8.48459 118.165 11.5471V102.567C118.165 105.629 116.905 108.566 114.663 110.732C112.42 112.897 109.379 114.114 106.208 114.114H11.957C8.78598 114.114 5.74482 112.897 3.50248 110.732C1.26013 108.567 0.000265202 105.63 0 102.568L0 11.5471C0 8.48459 1.25975 5.54755 3.50212 3.38206C5.7445 1.21656 8.78581 0 11.957 0Z" fill="url(#paint0_linear_76_104)"/>
<path d="M72.0418 65.0147C71.6307 62.3134 70.2304 59.844 68.0951 58.0544C65.9599 56.2649 63.2311 55.2738 60.4038 55.261H57.7688C54.9416 55.2738 52.2128 56.2649 50.0775 58.0544C47.9423 59.844 46.542 62.3134 46.1308 65.0147L44.8678 73.542C44.8278 73.8179 44.8548 74.0989 44.9468 74.3629C45.0388 74.627 45.1932 74.8666 45.3978 75.063C45.8978 75.5459 48.9318 77.9804 59.0908 77.9804C69.2498 77.9804 72.2818 75.5507 72.7838 75.063C72.9879 74.8664 73.1418 74.6266 73.2332 74.3626C73.3247 74.0986 73.3513 73.8176 73.3108 73.542L72.0418 65.0147Z" fill="#7C3AED"/>
<path d="M48.0887 56.5783C45.6954 58.7087 44.1382 61.5725 43.6807 64.6845L42.7647 70.8062C35.4127 70.7628 33.1817 68.1766 32.8127 67.6503C32.6691 67.4591 32.5666 67.2421 32.5113 67.012C32.456 66.782 32.449 66.5435 32.4907 66.3108L33.0357 63.3461C33.3195 61.7964 33.986 60.3356 34.9788 59.0877C35.9716 57.8397 37.2614 56.8413 38.7388 56.1772C40.2161 55.5131 41.8376 55.2028 43.4656 55.2726C45.0936 55.3424 46.6801 55.7903 48.0907 56.5783H48.0887Z" fill="#7C3AED"/>
<path d="M85.6776 66.3108C85.7194 66.5435 85.7124 66.7819 85.6571 67.012C85.6018 67.242 85.4993 67.4591 85.3556 67.6502C84.9846 68.1765 82.7556 70.7589 75.4016 70.8071L74.4856 64.6855C74.0281 61.5734 72.4709 58.7096 70.0776 56.5792C71.4883 55.7902 73.0753 55.3414 74.7038 55.271C76.3324 55.2006 77.9546 55.5106 79.4326 56.1747C80.9107 56.8389 82.201 57.8375 83.1942 59.0859C84.1874 60.3343 84.854 61.7957 85.1376 63.346L85.6776 66.3108Z" fill="#7C3AED"/>
<path d="M48.5096 51.317C47.8864 52.1708 47.0589 52.8667 46.0975 53.3455C45.1362 53.8243 44.0693 54.072 42.9876 54.0674C41.9084 54.0677 40.8445 53.8204 39.8837 53.3457C38.9229 52.871 38.0927 52.1826 37.4615 51.3372C36.8303 50.4919 36.4162 49.5137 36.2533 48.4834C36.0904 47.4531 36.1834 46.4002 36.5247 45.4115C36.8659 44.4227 37.4456 43.5264 38.2159 42.7965C38.9863 42.0666 39.9252 41.5239 40.9554 41.2133C41.9856 40.9026 43.0774 40.8328 44.141 41.0097C45.2046 41.1866 46.2094 41.605 47.0726 42.2306C46.8245 43.1681 46.6999 44.1321 46.7016 45.0997C46.7037 47.2929 47.3291 49.4435 48.5096 51.317Z" fill="#7C3AED"/>
<path d="M81.9868 47.4918C81.988 48.3557 81.8126 49.2114 81.4708 50.0098C81.129 50.8081 80.6274 51.5335 79.9948 52.1443C79.3621 52.7552 78.6109 53.2395 77.7842 53.5695C76.9574 53.8994 76.0714 54.0687 75.1768 54.0674C74.0951 54.072 73.0282 53.8243 72.0669 53.3455C71.1055 52.8667 70.278 52.1708 69.6548 51.317C70.8354 49.4435 71.4607 47.2929 71.4628 45.0997C71.4645 44.1321 71.3399 43.1681 71.0918 42.2306C72.1035 41.4981 73.3065 41.0521 74.566 40.9425C75.8254 40.833 77.0915 41.0643 78.2225 41.6104C79.3535 42.1566 80.3047 42.9961 80.9696 44.0349C81.6344 45.0736 81.9866 46.2706 81.9868 47.4918Z" fill="#7C3AED"/>
<path d="M59.0839 54.0686C64.2124 54.0686 68.3699 50.0536 68.3699 45.1009C68.3699 40.1482 64.2124 36.1333 59.0839 36.1333C53.9553 36.1333 49.7979 40.1482 49.7979 45.1009C49.7979 50.0536 53.9553 54.0686 59.0839 54.0686Z" fill="#7C3AED"/>
<defs>
<linearGradient id="paint0_linear_76_104" x1="0" y1="0" x2="100.988" y2="106.226" gradientUnits="userSpaceOnUse">
<stop stop-color="#7C3AED"/>
<stop offset="1" stop-color="#ECC9FF" stop-opacity="0.231"/>
</linearGradient>
</defs>
</svg>
